<svg width="16" height="17" viewBox="0 0 16 17" fill="none" xmlns="http://www.w3.org/2000/svg">
<path d="M8.93341 8.50033L13.1334 4.30033C13.4001 4.03366 13.4001 3.63366 13.1334 3.36699C12.8667 3.10033 12.4667 3.10033 12.2001 3.36699L8.00008 7.56699L3.80008 3.36699C3.53341 3.10033 3.13341 3.10033 2.86675 3.36699C2.60008 3.63366 2.60008 4.03366 2.86675 4.30033L7.06675 8.50033L2.86675 12.7003C2.73341 12.8337 2.66675 12.967 2.66675 13.167C2.66675 13.567 2.93341 13.8337 3.33341 13.8337C3.53341 13.8337 3.66675 13.767 3.80008 13.6337L8.00008 9.43366L12.2001 13.6337C12.3334 13.767 12.4667 13.8337 12.6667 13.8337C12.8667 13.8337 13.0001 13.767 13.1334 13.6337C13.4001 13.367 13.4001 12.967 13.1334 12.7003L8.93341 8.50033Z" fill="#AEAEAE"/>
</svg>
